<svg width="251" height="45" viewBox="0 0 251 45" fill="none" xmlns="http://www.w3.org/2000/svg">
<path d="M19.6591 6.05282C20.2469 4.18768 22.8864 4.18768 23.4742 6.05282L25.9678 13.9656C26.2302 14.7982 27.0024 15.3644 27.8754 15.3644L36.0719 15.3644C37.9945 15.3644 38.8097 17.8124 37.2709 18.9651L30.5358 24.0103C29.8561 24.5194 29.572 25.4022 29.8273 26.2121L32.3749 34.2961C32.959 36.1495 30.8237 37.663 29.2683 36.498L22.7657 31.627C22.055 31.0946 21.0783 31.0946 20.3676 31.627L13.865 36.498C12.3097 37.663 10.1743 36.1495 10.7584 34.2961L13.306 26.2121C13.5613 25.4022 13.2772 24.5194 12.5976 24.0103L5.86241 18.9651C4.32363 17.8125 5.13884 15.3644 7.06146 15.3644L15.258 15.3644C16.131 15.3644 16.9031 14.7982 17.1655 13.9655L19.6591 6.05282Z" fill="#66FFAC"/>
<path d="M226.699 6.05282C227.287 4.18768 229.926 4.18768 230.514 6.05282L233.008 13.9656C233.27 14.7982 234.042 15.3644 234.915 15.3644L243.112 15.3644C245.035 15.3644 245.85 17.8124 244.311 18.9651L237.576 24.0103C236.896 24.5194 236.612 25.4022 236.867 26.2121L239.415 34.2961C239.999 36.1495 237.864 37.663 236.308 36.498L229.806 31.627C229.095 31.0946 228.118 31.0946 227.408 31.627L220.905 36.498C219.35 37.663 217.214 36.1495 217.798 34.2961L220.346 26.2121C220.601 25.4022 220.317 24.5194 219.638 24.0103L212.902 18.9651C211.364 17.8125 212.179 15.3644 214.102 15.3644L222.298 15.3644C223.171 15.3644 223.943 14.7982 224.206 13.9655L226.699 6.05282Z" fill="#66FFAC"/>
<path d="M174.939 6.05282C175.527 4.18768 178.166 4.18768 178.754 6.05282L181.248 13.9656C181.51 14.7982 182.282 15.3644 183.155 15.3644L191.352 15.3644C193.275 15.3644 194.09 17.8124 192.551 18.9651L185.816 24.0103C185.136 24.5194 184.852 25.4022 185.107 26.2121L187.655 34.2961C188.239 36.1495 186.104 37.663 184.548 36.498L178.046 31.627C177.335 31.0946 176.358 31.0946 175.648 31.627L169.145 36.498C167.59 37.663 165.454 36.1495 166.039 34.2961L168.586 26.2121C168.841 25.4022 168.557 24.5194 167.878 24.0103L161.143 18.9651C159.604 17.8125 160.419 15.3644 162.342 15.3644L170.538 15.3644C171.411 15.3644 172.183 14.7982 172.446 13.9655L174.939 6.05282Z" fill="#66FFAC"/>
<path d="M123.179 6.05282C123.767 4.18768 126.406 4.18768 126.994 6.05282L129.488 13.9656C129.75 14.7982 130.522 15.3644 131.395 15.3644L139.592 15.3644C141.514 15.3644 142.33 17.8124 140.791 18.9651L134.056 24.0103C133.376 24.5194 133.092 25.4022 133.347 26.2121L135.895 34.2961C136.479 36.1495 134.344 37.663 132.788 36.498L126.286 31.627C125.575 31.0946 124.598 31.0946 123.888 31.627L117.385 36.498C115.83 37.663 113.694 36.1495 114.278 34.2961L116.826 26.2121C117.081 25.4022 116.797 24.5194 116.118 24.0103L109.382 18.9651C107.844 17.8125 108.659 15.3644 110.581 15.3644L118.778 15.3644C119.651 15.3644 120.423 14.7982 120.685 13.9655L123.179 6.05282Z" fill="#66FFAC"/>
<path d="M71.4192 6.05282C72.0069 4.18768 74.6464 4.18768 75.2342 6.05282L77.7279 13.9656C77.9903 14.7982 78.7624 15.3644 79.6354 15.3644L87.8319 15.3644C89.7545 15.3644 90.5697 17.8124 89.0309 18.9651L82.2958 24.0103C81.6161 24.5194 81.3321 25.4022 81.5873 26.2121L84.1349 34.2961C84.719 36.1495 82.5837 37.663 81.0284 36.498L74.5257 31.627C73.815 31.0946 72.8383 31.0946 72.1276 31.627L65.625 36.498C64.0697 37.663 61.9343 36.1495 62.5184 34.2961L65.0661 26.2121C65.3213 25.4022 65.0372 24.5194 64.3576 24.0103L57.6224 18.9651C56.0836 17.8125 56.8988 15.3644 58.8215 15.3644L67.018 15.3644C67.891 15.3644 68.6631 14.7982 68.9255 13.9655L71.4192 6.05282Z" fill="#66FFAC"/>
<mask id="mask0" mask-type="alpha" maskUnits="userSpaceOnUse" x="177" y="0" width="73" height="44">
<rect x="177" width="73" height="44" fill="#C4C4C4"/>
</mask>
<g mask="url(#mask0)">
<path d="M226.699 6.05282C227.287 4.18768 229.926 4.18768 230.514 6.05282L233.008 13.9656C233.27 14.7982 234.042 15.3644 234.915 15.3644L243.112 15.3644C245.035 15.3644 245.85 17.8124 244.311 18.9651L237.576 24.0103C236.896 24.5194 236.612 25.4022 236.867 26.2121L239.415 34.2961C239.999 36.1495 237.864 37.663 236.308 36.498L229.806 31.627C229.095 31.0946 228.118 31.0946 227.408 31.627L220.905 36.498C219.35 37.663 217.214 36.1495 217.798 34.2961L220.346 26.2121C220.601 25.4022 220.317 24.5194 219.638 24.0103L212.902 18.9651C211.364 17.8125 212.179 15.3644 214.102 15.3644L222.298 15.3644C223.171 15.3644 223.943 14.7982 224.206 13.9655L226.699 6.05282Z" fill="#717171"/>
<path d="M174.939 6.05282C175.527 4.18768 178.166 4.18768 178.754 6.05282L181.248 13.9656C181.51 14.7982 182.282 15.3644 183.155 15.3644L191.352 15.3644C193.275 15.3644 194.09 17.8124 192.551 18.9651L185.816 24.0103C185.136 24.5194 184.852 25.4022 185.107 26.2121L187.655 34.2961C188.239 36.1495 186.104 37.663 184.548 36.498L178.046 31.627C177.335 31.0946 176.358 31.0946 175.648 31.627L169.145 36.498C167.59 37.663 165.454 36.1495 166.039 34.2961L168.586 26.2121C168.841 25.4022 168.557 24.5194 167.878 24.0103L161.143 18.9651C159.604 17.8125 160.419 15.3644 162.342 15.3644L170.538 15.3644C171.411 15.3644 172.183 14.7982 172.446 13.9655L174.939 6.05282Z" fill="#717171"/>
</g>
</svg>
