<svg width="251" height="46" viewBox="0 0 251 46" fill="none" xmlns="http://www.w3.org/2000/svg">
<path d="M19.8911 7.00473C20.4789 5.13959 23.1183 5.13959 23.7061 7.00473L26.1998 14.9175C26.4622 15.7501 27.2343 16.3163 28.1073 16.3163L36.3038 16.3163C38.2264 16.3163 39.0416 18.7644 37.5029 19.917L30.7677 24.9622C30.088 25.4713 29.804 26.3541 30.0592 27.164L32.6069 35.248C33.191 37.1014 31.0556 38.6149 29.5003 37.4499L22.9977 32.5789C22.2869 32.0465 21.3103 32.0465 20.5995 32.5789L14.0969 37.4499C12.5416 38.6149 10.4062 37.1014 10.9903 35.248L13.538 27.164C13.7932 26.3541 13.5092 25.4713 12.8295 24.9622L6.09434 19.917C4.55556 18.7644 5.37077 16.3163 7.2934 16.3163L15.4899 16.3163C16.3629 16.3163 17.135 15.7501 17.3974 14.9175L19.8911 7.00473Z" fill="#66FFAC"/>
<path d="M226.931 7.00473C227.519 5.13959 230.158 5.13959 230.746 7.00473L233.24 14.9175C233.502 15.7501 234.274 16.3163 235.147 16.3163L243.344 16.3163C245.266 16.3163 246.082 18.7644 244.543 19.917L237.808 24.9622C237.128 25.4713 236.844 26.3541 237.099 27.164L239.647 35.248C240.231 37.1014 238.096 38.6149 236.54 37.4499L230.038 32.5789C229.327 32.0465 228.35 32.0465 227.64 32.5789L221.137 37.4499C219.582 38.6149 217.446 37.1014 218.03 35.248L220.578 27.164C220.833 26.3541 220.549 25.4713 219.87 24.9622L213.134 19.917C211.596 18.7644 212.411 16.3163 214.333 16.3163L222.53 16.3163C223.403 16.3163 224.175 15.7501 224.437 14.9175L226.931 7.00473Z" fill="#66FFAC"/>
<path d="M175.171 7.00473C175.759 5.13959 178.398 5.13959 178.986 7.00473L181.48 14.9175C181.742 15.7501 182.514 16.3163 183.387 16.3163L191.584 16.3163C193.507 16.3163 194.322 18.7644 192.783 19.917L186.048 24.9622C185.368 25.4713 185.084 26.3541 185.339 27.164L187.887 35.248C188.471 37.1014 186.336 38.6149 184.78 37.4499L178.278 32.5789C177.567 32.0465 176.59 32.0465 175.88 32.5789L169.377 37.4499C167.822 38.6149 165.686 37.1014 166.27 35.248L168.818 27.164C169.073 26.3541 168.789 25.4713 168.11 24.9622L161.374 19.917C159.836 18.7644 160.651 16.3163 162.573 16.3163L170.77 16.3163C171.643 16.3163 172.415 15.7501 172.678 14.9175L175.171 7.00473Z" fill="#66FFAC"/>
<path d="M123.411 7.00473C123.999 5.13959 126.638 5.13959 127.226 7.00473L129.72 14.9175C129.982 15.7501 130.754 16.3163 131.627 16.3163L139.824 16.3163C141.746 16.3163 142.562 18.7644 141.023 19.917L134.288 24.9622C133.608 25.4713 133.324 26.3541 133.579 27.164L136.127 35.248C136.711 37.1014 134.576 38.6149 133.02 37.4499L126.518 32.5789C125.807 32.0465 124.83 32.0465 124.12 32.5789L117.617 37.4499C116.062 38.6149 113.926 37.1014 114.51 35.248L117.058 27.164C117.313 26.3541 117.029 25.4713 116.349 24.9622L109.614 19.917C108.076 18.7644 108.891 16.3163 110.813 16.3163L119.01 16.3163C119.883 16.3163 120.655 15.7501 120.917 14.9175L123.411 7.00473Z" fill="#66FFAC"/>
<path d="M71.6511 7.00473C72.2389 5.13959 74.8783 5.13959 75.4661 7.00473L77.9598 14.9175C78.2222 15.7501 78.9943 16.3163 79.8673 16.3163L88.0638 16.3163C89.9864 16.3163 90.8017 18.7644 89.2629 19.917L82.5277 24.9622C81.848 25.4713 81.564 26.3541 81.8192 27.164L84.3669 35.248C84.951 37.1014 82.8156 38.6149 81.2603 37.4499L74.7577 32.5789C74.0469 32.0465 73.0703 32.0465 72.3596 32.5789L65.8569 37.4499C64.3016 38.6149 62.1663 37.1014 62.7504 35.248L65.298 27.164C65.5532 26.3541 65.2692 25.4713 64.5895 24.9622L57.8544 19.917C56.3156 18.7644 57.1308 16.3163 59.0534 16.3163L67.2499 16.3163C68.1229 16.3163 68.895 15.7501 69.1574 14.9175L71.6511 7.00473Z" fill="#66FFAC"/>
</svg>
