<svg width="34" height="33" viewBox="0 0 34 33" fill="none" xmlns="http://www.w3.org/2000/svg">
<path d="M14.6591 2.05282C15.2469 0.187683 17.8864 0.187684 18.4742 2.05282L20.9678 9.96555C21.2302 10.7982 22.0024 11.3644 22.8754 11.3644L31.0719 11.3644C32.9945 11.3644 33.8097 13.8124 32.2709 14.9651L25.5358 20.0103C24.8561 20.5194 24.572 21.4022 24.8273 22.2121L27.3749 30.2961C27.959 32.1495 25.8237 33.663 24.2683 32.498L17.7657 27.627C17.055 27.0946 16.0783 27.0946 15.3676 27.627L8.86499 32.498C7.30967 33.663 5.17432 32.1495 5.75841 30.2961L8.30604 22.2121C8.56129 21.4022 8.27724 20.5194 7.59758 20.0103L0.862411 14.9651C-0.676369 13.8125 0.13884 11.3644 2.06146 11.3644L10.258 11.3644C11.131 11.3644 11.9031 10.7982 12.1655 9.96555L14.6591 2.05282Z" fill="#404040"/>
</svg>
